<svg width="21" height="21" viewBox="0 0 21 21" fill="none" xmlns="http://www.w3.org/2000/svg">
<path d="M19.5759 2.73659C19.3322 2.49277 19.0428 2.29936 18.7242 2.1674C18.4057 2.03545 18.0643 1.96753 17.7196 1.96753C17.3748 1.96753 17.0334 2.03545 16.7149 2.1674C16.3964 2.29936 16.107 2.49277 15.8632 2.73659C15.6194 2.98035 15.426 3.26975 15.294 3.58827C15.1621 3.90679 15.0941 4.24818 15.0941 4.59295C15.0941 4.93772 15.1621 5.27912 15.294 5.59764C15.426 5.91615 15.6194 6.20556 15.8632 6.44932C15.887 6.47311 15.9124 6.49608 15.937 6.51905L13.7525 10.5763C13.0865 10.4139 12.3835 10.5169 11.792 10.8634L10.1366 9.20803C10.4623 8.65758 10.5758 8.00717 10.4558 7.37895C10.3358 6.75073 9.99062 6.18792 9.48502 5.79623C8.97941 5.40454 8.3482 5.21091 7.70993 5.25172C7.07166 5.29252 6.47024 5.56495 6.01863 6.01784C5.77481 6.2616 5.5814 6.551 5.44945 6.86952C5.31749 7.18804 5.24957 7.52943 5.24957 7.8742C5.24957 8.21897 5.31749 8.56037 5.44945 8.87889C5.5814 9.1974 5.77481 9.48681 6.01863 9.73057C6.04242 9.75436 6.06703 9.77733 6.09164 9.8003L3.90715 13.8584C3.46866 13.7505 3.00975 13.7575 2.57476 13.8788C2.13978 14 1.74344 14.2315 1.42406 14.5507C1.05701 14.9179 0.80706 15.3856 0.705822 15.8948C0.604584 16.404 0.656603 16.9317 0.855301 17.4114C1.054 17.891 1.39045 18.3009 1.82212 18.5893C2.25378 18.8777 2.76128 19.0317 3.28043 19.0317C3.79958 19.0317 4.30707 18.8777 4.73874 18.5893C5.1704 18.3009 5.50686 17.891 5.70555 17.4114C5.90425 16.9317 5.95627 16.404 5.85503 15.8948C5.75379 15.3856 5.50385 14.9179 5.13679 14.5507C5.11301 14.5269 5.08758 14.504 5.06297 14.481L7.24746 10.4237C7.45286 10.474 7.66353 10.4997 7.875 10.5C8.34366 10.5006 8.80393 10.3757 9.20801 10.1383L10.8634 11.7937C10.6142 12.2166 10.4886 12.701 10.5008 13.1918C10.5131 13.6825 10.6627 14.16 10.9327 14.57C11.2027 14.98 11.5823 15.3061 12.0283 15.5112C12.4743 15.7163 12.9689 15.7922 13.456 15.7303C13.943 15.6684 14.4028 15.4712 14.7834 15.161C15.1639 14.8509 15.4499 14.4402 15.6087 13.9757C15.7676 13.5112 15.793 13.0115 15.6821 12.5333C15.5712 12.055 15.3285 11.6175 14.9814 11.2703C14.9576 11.2465 14.933 11.2235 14.9084 11.2006L17.0928 7.1433C17.2977 7.19326 17.5079 7.21859 17.7187 7.21877C18.2378 7.2187 18.7452 7.06473 19.1768 6.77634C19.6084 6.48794 19.9448 6.07807 20.1434 5.59853C20.3421 5.11899 20.3942 4.59131 20.293 4.0822C20.1919 3.57308 19.942 3.10538 19.5751 2.73823L19.5759 2.73659ZM4.2082 17.3357C3.96192 17.5819 3.62794 17.7201 3.27973 17.72C2.93151 17.72 2.59759 17.5816 2.35142 17.3353C2.10525 17.089 1.967 16.755 1.96708 16.4068C1.96715 16.0586 2.10556 15.7247 2.35183 15.4785C2.47378 15.3566 2.61854 15.2599 2.77784 15.194C2.93715 15.128 3.10789 15.0941 3.28031 15.0942C3.45272 15.0942 3.62345 15.1282 3.78273 15.1942C3.942 15.2602 4.08672 15.357 4.20861 15.4789C4.3305 15.6009 4.42718 15.7456 4.49313 15.9049C4.55907 16.0642 4.593 16.235 4.59296 16.4074C4.59292 16.5798 4.55892 16.7505 4.4929 16.9098C4.42689 17.0691 4.33015 17.2138 4.2082 17.3357ZM6.9464 8.80444C6.8245 8.68256 6.72779 8.53785 6.66181 8.3786C6.59583 8.21934 6.56188 8.04864 6.56188 7.87625C6.56188 7.70387 6.59583 7.53317 6.66181 7.37391C6.72779 7.21465 6.8245 7.06995 6.9464 6.94807C7.12997 6.76454 7.36384 6.63957 7.61843 6.58895C7.87302 6.53833 8.13691 6.56434 8.37672 6.66369C8.61653 6.76304 8.82149 6.93127 8.9657 7.1471C9.10991 7.36293 9.18688 7.61668 9.18688 7.87625C9.18688 8.13583 9.10991 8.38958 8.9657 8.60541C8.82149 8.82124 8.61653 8.98947 8.37672 9.08882C8.13691 9.18817 7.87302 9.21418 7.61843 9.16356C7.36384 9.11294 7.12997 8.98796 6.9464 8.80444ZM14.0536 14.0544C13.8074 14.3006 13.4735 14.4389 13.1254 14.4389C12.7773 14.4389 12.4434 14.3006 12.1972 14.0544C11.9511 13.8083 11.8128 13.4744 11.8128 13.1263C11.8128 12.7781 11.9511 12.4442 12.1972 12.1981C12.4434 11.9519 12.7773 11.8136 13.1254 11.8136C13.4735 11.8136 13.8074 11.9519 14.0536 12.1981C14.2998 12.4442 14.4381 12.7781 14.4381 13.1263C14.4381 13.4744 14.2998 13.8083 14.0536 14.0544ZM18.6473 5.52319C18.4008 5.76925 18.0667 5.90731 17.7184 5.907C17.3701 5.9067 17.0362 5.76804 16.7902 5.52155C16.5441 5.27505 16.406 4.9409 16.4063 4.59261C16.4066 4.24432 16.5453 3.91042 16.7918 3.66436C16.9137 3.54247 17.0585 3.44579 17.2178 3.37984C17.3771 3.3139 17.5478 3.27998 17.7203 3.28001C17.8927 3.28005 18.0634 3.31405 18.2227 3.38007C18.382 3.44608 18.5267 3.54282 18.6486 3.66477C18.7705 3.78671 18.8671 3.93147 18.9331 4.09078C18.999 4.25009 19.033 4.42083 19.0329 4.59324C19.0329 4.76566 18.9989 4.93638 18.9329 5.09566C18.8668 5.25494 18.7701 5.39966 18.6482 5.52155L18.6473 5.52319Z" fill="#F0F0F0"/>
</svg>
