<svg width="22" height="22" viewBox="0 0 22 22" fill="none" xmlns="http://www.w3.org/2000/svg">
<g clip-path="url(#clip0_204_3064)">
<path d="M20.9473 13.2711C20.8784 13.3228 20.7999 13.3604 20.7165 13.3818C20.633 13.4032 20.5461 13.408 20.4608 13.3958C20.3755 13.3836 20.2934 13.3547 20.2192 13.3108C20.1451 13.2669 20.0803 13.2088 20.0286 13.1399C19.6331 12.6082 19.1182 12.1768 18.5255 11.8805C17.9328 11.5841 17.2788 11.431 16.6161 11.4336C16.487 11.4336 16.3609 11.3955 16.2533 11.3242C16.1458 11.2529 16.0617 11.1514 16.0115 11.0325C15.9775 10.9517 15.9599 10.865 15.9599 10.7774C15.9599 10.6897 15.9775 10.603 16.0115 10.5223C16.0617 10.4034 16.1458 10.3019 16.2533 10.2305C16.3609 10.1592 16.487 10.1211 16.6161 10.1211C16.9843 10.1211 17.3451 10.0178 17.6576 9.82297C17.97 9.62815 18.2216 9.3496 18.3837 9.01898C18.5458 8.68836 18.6119 8.31891 18.5745 7.95259C18.5371 7.58628 18.3978 7.23778 18.1723 6.94669C17.9468 6.6556 17.6442 6.43358 17.2988 6.30586C16.9535 6.17813 16.5792 6.14982 16.2186 6.22413C15.858 6.29844 15.5254 6.4724 15.2587 6.72625C14.9919 6.9801 14.8017 7.30366 14.7097 7.66018C14.6881 7.74367 14.6504 7.82209 14.5985 7.89098C14.5467 7.95987 14.4817 8.01787 14.4075 8.06167C14.3332 8.10547 14.251 8.13421 14.1657 8.14625C14.0803 8.1583 13.9934 8.15341 13.9099 8.13186C13.8264 8.11032 13.748 8.07254 13.6791 8.02068C13.6102 7.96883 13.5522 7.90391 13.5084 7.82965C13.4646 7.75538 13.4359 7.67321 13.4238 7.58783C13.4118 7.50245 13.4167 7.41554 13.4382 7.33206C13.566 6.83766 13.8074 6.37992 14.1432 5.99523C14.479 5.61055 14.8999 5.30955 15.3725 5.11619C15.8451 4.92282 16.3564 4.84243 16.8655 4.8814C17.3746 4.92037 17.8677 5.07763 18.3053 5.34067C18.743 5.60372 19.1133 5.96528 19.3866 6.39659C19.6599 6.8279 19.8289 7.31705 19.8799 7.82513C19.9309 8.3332 19.8627 8.84618 19.6806 9.32324C19.4985 9.8003 19.2075 10.2283 18.8309 10.5731C19.7233 10.9595 20.499 11.5726 21.0811 12.3515C21.1328 12.4207 21.1703 12.4993 21.1916 12.583C21.2129 12.6666 21.2174 12.7537 21.205 12.8391C21.1926 12.9245 21.1634 13.0066 21.1192 13.0808C21.075 13.1549 21.0166 13.2196 20.9473 13.2711ZM16.5275 18.3242C16.575 18.3989 16.6069 18.4825 16.6212 18.5698C16.6356 18.6571 16.6321 18.7465 16.6111 18.8324C16.59 18.9184 16.5518 18.9992 16.4987 19.07C16.4456 19.1408 16.3787 19.2002 16.3021 19.2445C16.2255 19.2888 16.1407 19.3171 16.0528 19.3278C15.965 19.3384 15.8758 19.3312 15.7908 19.3066C15.7058 19.2819 15.6267 19.2403 15.5582 19.1843C15.4897 19.1282 15.4332 19.0589 15.3922 18.9805C14.9788 18.2805 14.39 17.7004 13.684 17.2974C12.978 16.8944 12.179 16.6824 11.3661 16.6824C10.5531 16.6824 9.75423 16.8944 9.0482 17.2974C8.34216 17.7004 7.7534 18.2805 7.34 18.9805C7.29897 19.0589 7.24251 19.1282 7.174 19.1843C7.10549 19.2403 7.02636 19.2819 6.94135 19.3066C6.85635 19.3312 6.76724 19.3384 6.67937 19.3278C6.59151 19.3171 6.50672 19.2888 6.43009 19.2445C6.35346 19.2002 6.28659 19.1408 6.23349 19.07C6.18039 18.9992 6.14216 18.9184 6.1211 18.8324C6.10004 18.7465 6.09659 18.6571 6.11096 18.5698C6.12532 18.4825 6.15721 18.3989 6.20469 18.3242C6.84092 17.2311 7.81102 16.3708 8.97242 15.8699C8.3189 15.3695 7.83861 14.6769 7.59905 13.8895C7.3595 13.1021 7.37273 12.2593 7.63688 11.4798C7.90104 10.7003 8.40283 10.0231 9.07174 9.54352C9.74064 9.06392 10.543 8.80599 11.3661 8.80599C12.1892 8.80599 12.9915 9.06392 13.6605 9.54352C14.3294 10.0231 14.8312 10.7003 15.0953 11.4798C15.3595 12.2593 15.3727 13.1021 15.1331 13.8895C14.8936 14.6769 14.4133 15.3695 13.7598 15.8699C14.9212 16.3708 15.8913 17.2311 16.5275 18.3242ZM11.3661 15.3711C11.8853 15.3711 12.3928 15.2172 12.8245 14.9287C13.2561 14.6403 13.5926 14.2303 13.7913 13.7507C13.99 13.271 14.0419 12.7432 13.9407 12.234C13.8394 11.7248 13.5894 11.2571 13.2222 10.89C12.8551 10.5229 12.3874 10.2728 11.8782 10.1716C11.369 10.0703 10.8412 10.1223 10.3615 10.3209C9.88189 10.5196 9.47192 10.8561 9.18349 11.2877C8.89505 11.7194 8.74109 12.2269 8.74109 12.7461C8.74109 13.4423 9.01766 14.11 9.50994 14.6023C10.0022 15.0946 10.6699 15.3711 11.3661 15.3711ZM6.77234 10.7774C6.77234 10.6033 6.7032 10.4364 6.58013 10.3133C6.45706 10.1903 6.29014 10.1211 6.11609 10.1211C5.74788 10.1211 5.38705 10.0178 5.0746 9.82297C4.76215 9.62815 4.51059 9.3496 4.34851 9.01898C4.18643 8.68836 4.12031 8.31891 4.15768 7.95259C4.19504 7.58628 4.33439 7.23778 4.55988 6.94669C4.78538 6.6556 5.08799 6.43358 5.43335 6.30586C5.7787 6.17813 6.15295 6.14982 6.51359 6.22413C6.87423 6.29844 7.2068 6.4724 7.47353 6.72625C7.74025 6.9801 7.93045 7.30366 8.0225 7.66018C8.06601 7.82879 8.17472 7.97321 8.32471 8.06167C8.47471 8.15012 8.6537 8.17537 8.8223 8.13186C8.99091 8.08835 9.13533 7.97964 9.22379 7.82965C9.31225 7.67965 9.3375 7.50066 9.29398 7.33206C9.16622 6.83766 8.92482 6.37992 8.58902 5.99523C8.25321 5.61055 7.83226 5.30955 7.35965 5.11619C6.88704 4.92282 6.37583 4.84243 5.86668 4.8814C5.35754 4.92037 4.86452 5.07763 4.42685 5.34067C3.98917 5.60372 3.61894 5.96528 3.34559 6.39659C3.07224 6.8279 2.90333 7.31705 2.85229 7.82513C2.80125 8.3332 2.8695 8.84618 3.05161 9.32324C3.23371 9.8003 3.52464 10.2283 3.90125 10.5731C3.0098 10.9598 2.23496 11.5729 1.65359 12.3515C1.54906 12.4908 1.50411 12.6658 1.52865 12.8382C1.55319 13.0106 1.64519 13.1662 1.78443 13.2707C1.92367 13.3752 2.09874 13.4202 2.27111 13.3957C2.44349 13.3711 2.59906 13.2791 2.70359 13.1399C3.09914 12.6082 3.61399 12.1768 4.2067 11.8805C4.79941 11.5841 5.45343 11.431 6.11609 11.4336C6.29014 11.4336 6.45706 11.3645 6.58013 11.2414C6.7032 11.1183 6.77234 10.9514 6.77234 10.7774Z" fill="#F0F0F0"/>
</g>
<defs>
<clipPath id="clip0_204_3064">
<rect width="21" height="21" fill="white" transform="translate(0.866089 0.933594)"/>
</clipPath>
</defs>
</svg>
