<svg width="21" height="21" viewBox="0 0 21 21" fill="none" xmlns="http://www.w3.org/2000/svg">
<path d="M2.625 5.25C2.625 5.07595 2.69414 4.90903 2.81721 4.78596C2.94028 4.66289 3.1072 4.59375 3.28125 4.59375H17.7188C17.8928 4.59375 18.0597 4.66289 18.1828 4.78596C18.3059 4.90903 18.375 5.07595 18.375 5.25C18.375 5.42405 18.3059 5.59097 18.1828 5.71404C18.0597 5.83711 17.8928 5.90625 17.7188 5.90625H3.28125C3.1072 5.90625 2.94028 5.83711 2.81721 5.71404C2.69414 5.59097 2.625 5.42405 2.625 5.25ZM3.28125 11.1562H9.1875C9.36155 11.1562 9.52847 11.0871 9.65154 10.964C9.77461 10.841 9.84375 10.674 9.84375 10.5C9.84375 10.326 9.77461 10.159 9.65154 10.036C9.52847 9.91289 9.36155 9.84375 9.1875 9.84375H3.28125C3.1072 9.84375 2.94028 9.91289 2.81721 10.036C2.69414 10.159 2.625 10.326 2.625 10.5C2.625 10.674 2.69414 10.841 2.81721 10.964C2.94028 11.0871 3.1072 11.1562 3.28125 11.1562ZM10.5 15.0938H3.28125C3.1072 15.0938 2.94028 15.1629 2.81721 15.286C2.69414 15.409 2.625 15.576 2.625 15.75C2.625 15.924 2.69414 16.091 2.81721 16.214C2.94028 16.3371 3.1072 16.4062 3.28125 16.4062H10.5C10.674 16.4062 10.841 16.3371 10.964 16.214C11.0871 16.091 11.1562 15.924 11.1562 15.75C11.1562 15.576 11.0871 15.409 10.964 15.286C10.841 15.1629 10.674 15.0938 10.5 15.0938ZM19.4955 16.2143C19.4346 16.2753 19.3622 16.3237 19.2826 16.3567C19.2029 16.3898 19.1175 16.4068 19.0312 16.4068C18.945 16.4068 18.8596 16.3898 18.7799 16.3567C18.7003 16.3237 18.6279 16.2753 18.567 16.2143L16.8984 14.5491C16.2199 14.9967 15.3993 15.1766 14.5958 15.0538C13.7922 14.931 13.0628 14.5143 12.5489 13.8844C12.0351 13.2545 11.7733 12.4563 11.8144 11.6444C11.8555 10.8325 12.1964 10.0648 12.7713 9.49C13.3461 8.91519 14.1138 8.57421 14.9257 8.53314C15.7375 8.49206 16.5357 8.75382 17.1656 9.26768C17.7955 9.78155 18.2122 10.5109 18.335 11.3145C18.4578 12.1181 18.278 12.9387 17.8303 13.6172L19.4955 15.2824C19.5571 15.3434 19.6059 15.416 19.6392 15.496C19.6725 15.576 19.6897 15.6617 19.6897 15.7484C19.6897 15.835 19.6725 15.9208 19.6392 16.0007C19.6059 16.0807 19.5571 16.1533 19.4955 16.2143ZM15.0938 13.7812C15.4831 13.7812 15.8638 13.6658 16.1875 13.4495C16.5113 13.2331 16.7636 12.9256 16.9126 12.5659C17.0616 12.2062 17.1006 11.8103 17.0247 11.4284C16.9487 11.0465 16.7612 10.6957 16.4859 10.4204C16.2105 10.145 15.8597 9.95754 15.4778 9.88158C15.0959 9.80561 14.7001 9.8446 14.3403 9.99361C13.9806 10.1426 13.6731 10.395 13.4568 10.7187C13.2405 11.0425 13.125 11.4231 13.125 11.8125C13.125 12.3346 13.3324 12.8354 13.7016 13.2046C14.0708 13.5738 14.5716 13.7812 15.0938 13.7812Z" fill="#F0F0F0"/>
</svg>
