<svg width="8" height="7" viewBox="0 0 8 7" fill="none" xmlns="http://www.w3.org/2000/svg">
<path d="M2.57142 5.14289L6.78571 0.928606C6.91666 0.797654 7.08333 0.732178 7.28571 0.732178C7.48809 0.732178 7.65476 0.797654 7.78571 0.928606C7.91666 1.05956 7.98214 1.22622 7.98214 1.42861C7.98214 1.63099 7.91666 1.79765 7.78571 1.92861L3.07142 6.64289C2.92857 6.78575 2.7619 6.85718 2.57142 6.85718C2.38095 6.85718 2.21428 6.78575 2.07142 6.64289L0.214281 4.78575C0.0833287 4.6548 0.0178528 4.48813 0.0178528 4.28575C0.0178528 4.08337 0.0833287 3.9167 0.214281 3.78575C0.345233 3.6548 0.5119 3.58932 0.714281 3.58932C0.916662 3.58932 1.08333 3.6548 1.21428 3.78575L2.57142 5.14289Z" fill="#F0F0F0"/>
</svg>
