<svg width="33" height="33" viewBox="0 0 33 33" fill="none" xmlns="http://www.w3.org/2000/svg">
<path d="M9.72138 13.5479C9.52763 13.4991 4.96388 12.2804 4.96388 5.57665C4.96388 5.31143 5.06924 5.05708 5.25677 4.86954C5.44431 4.682 5.69866 4.57665 5.96388 4.57665C12.6676 4.57665 13.8864 9.1404 13.9351 9.33415C13.9994 9.59157 13.9589 9.864 13.8223 10.0915C13.6858 10.319 13.4644 10.483 13.207 10.5473C12.9496 10.6116 12.6771 10.571 12.4496 10.4345C12.2221 10.2979 12.0582 10.0766 11.9939 9.81915C11.9626 9.70665 11.1764 7.01665 7.01138 6.62415C7.40388 10.7891 10.0889 11.5766 10.2139 11.6091C10.471 11.6755 10.6912 11.8412 10.8261 12.0698C10.961 12.2985 10.9996 12.5714 10.9333 12.8285C10.867 13.0856 10.7012 13.3058 10.4726 13.4407C10.2439 13.5757 9.97097 13.6142 9.71388 13.5479L9.72138 13.5479ZM18.1464 25.1729L17.5501 24.5766L10.2589 24.5766C9.99523 24.5781 9.73391 24.5272 9.49013 24.4267C9.24635 24.3263 9.02498 24.1784 8.83888 23.9916L4.55138 19.7016C4.36506 19.5166 4.21721 19.2966 4.11638 19.0541C4.01555 18.8117 3.96371 18.5517 3.96388 18.2891C3.96394 18.0724 3.99897 17.8572 4.06763 17.6516C4.18435 17.2988 4.39745 16.9856 4.68284 16.7474C4.96823 16.5093 5.31454 16.3558 5.68263 16.3041L10.4939 15.6329L16.0201 10.1066L16.6914 5.2979C16.7431 4.92932 16.8966 4.58249 17.1346 4.2964C17.3727 4.01032 17.6859 3.79634 18.0389 3.67853C18.392 3.56072 18.7709 3.54375 19.133 3.62954C19.4952 3.71534 19.8262 3.90048 20.0889 4.16415L24.3789 8.45165C24.5656 8.63774 24.7136 8.85912 24.814 9.1029C24.9144 9.34668 24.9654 9.608 24.9639 9.87165L24.9639 17.1629L25.5601 17.7591C28.8939 21.0941 29.0376 25.1129 28.9439 26.6854C28.9142 27.173 28.7072 27.6329 28.3618 27.9783C28.0164 28.3237 27.5565 28.5308 27.0689 28.5604C25.5001 28.6516 21.4814 28.5079 18.1464 25.1741L18.1464 25.1729ZM18.6714 5.57665L18.0239 10.2204L22.9639 15.1629L22.9639 9.87165L18.6714 5.57665ZM16.9639 11.9916L12.3789 16.5766L19.5601 23.7579C20.5214 24.7257 21.6787 25.4765 22.9542 25.9599C24.2297 26.4433 25.5939 26.648 26.9551 26.5604C27.0395 25.1999 26.8326 23.837 26.3482 22.5629C25.8639 21.2887 25.1132 20.1326 24.1464 19.1716L16.9639 11.9916ZM15.5501 22.5766L10.6089 17.6354L5.96388 18.2854L10.2589 22.5766L15.5501 22.5766Z" fill="#F0F0F0"/>
</svg>
