<svg width="32" height="32" viewBox="0 0 32 32" fill="none" xmlns="http://www.w3.org/2000/svg">
<path d="M30 17.0001V25.0001C30 25.2653 29.8947 25.5196 29.7071 25.7072C29.5196 25.8947 29.2652 26.0001 29 26.0001H21C20.7348 26.0001 20.4804 25.8947 20.2929 25.7072C20.1054 25.5196 20 25.2653 20 25.0001C20 24.7349 20.1054 24.4805 20.2929 24.293C20.4804 24.1054 20.7348 24.0001 21 24.0001H26.5863L17 14.4138L12.7075 18.7076C12.6146 18.8005 12.5043 18.8743 12.3829 18.9246C12.2615 18.975 12.1314 19.0009 12 19.0009C11.8686 19.0009 11.7385 18.975 11.6171 18.9246C11.4957 18.8743 11.3854 18.8005 11.2925 18.7076L2.29251 9.70757C2.10487 9.51993 1.99945 9.26543 1.99945 9.00007C1.99945 8.7347 2.10487 8.48021 2.29251 8.29257C2.48015 8.10493 2.73464 7.99951 3.00001 7.99951C3.26537 7.99951 3.51987 8.10493 3.70751 8.29257L12 16.5863L16.2925 12.2926C16.3854 12.1996 16.4957 12.1258 16.6171 12.0755C16.7385 12.0252 16.8686 11.9993 17 11.9993C17.1314 11.9993 17.2615 12.0252 17.3829 12.0755C17.5043 12.1258 17.6146 12.1996 17.7075 12.2926L28 22.5863V17.0001C28 16.7349 28.1054 16.4805 28.2929 16.293C28.4804 16.1054 28.7348 16.0001 29 16.0001C29.2652 16.0001 29.5196 16.1054 29.7071 16.293C29.8947 16.4805 30 16.7349 30 17.0001Z" fill="#F0F0F0"/>
</svg>
