<svg width="33" height="33" viewBox="0 0 33 33" fill="none" xmlns="http://www.w3.org/2000/svg">
<path d="M5.12695 11.4663H9.25195C9.47225 12.3268 9.97265 13.0894 10.6743 13.634C11.3759 14.1786 12.2388 14.4742 13.127 14.4742C14.0151 14.4742 14.878 14.1786 15.5796 13.634C16.2813 13.0894 16.7817 12.3268 17.002 11.4663H27.127C27.3922 11.4663 27.6465 11.361 27.8341 11.1734C28.0216 10.9859 28.127 10.7316 28.127 10.4663C28.127 10.2011 28.0216 9.94677 27.8341 9.75923C27.6465 9.5717 27.3922 9.46634 27.127 9.46634H17.002C16.7817 8.60592 16.2813 7.8433 15.5796 7.2987C14.878 6.7541 14.0151 6.4585 13.127 6.4585C12.2388 6.4585 11.3759 6.7541 10.6743 7.2987C9.97265 7.8433 9.47225 8.60592 9.25195 9.46634H5.12695C4.86174 9.46634 4.60738 9.5717 4.41985 9.75923C4.23231 9.94677 4.12695 10.2011 4.12695 10.4663C4.12695 10.7316 4.23231 10.9859 4.41985 11.1734C4.60738 11.361 4.86174 11.4663 5.12695 11.4663ZM13.127 8.46634C13.5225 8.46634 13.9092 8.58364 14.2381 8.8034C14.567 9.02316 14.8233 9.33552 14.9747 9.70097C15.1261 10.0664 15.1657 10.4686 15.0885 10.8565C15.0114 11.2445 14.8209 11.6008 14.5412 11.8806C14.2615 12.1603 13.9051 12.3507 13.5171 12.4279C13.1292 12.5051 12.727 12.4655 12.3616 12.3141C11.9961 12.1627 11.6838 11.9064 11.464 11.5775C11.2443 11.2486 11.127 10.8619 11.127 10.4663C11.127 9.93591 11.3377 9.4272 11.7127 9.05213C12.0878 8.67705 12.5965 8.46634 13.127 8.46634ZM27.127 21.4663H25.002C24.7817 20.6059 24.2813 19.8433 23.5796 19.2987C22.878 18.7541 22.0151 18.4585 21.127 18.4585C20.2388 18.4585 19.3759 18.7541 18.6743 19.2987C17.9727 19.8433 17.4723 20.6059 17.252 21.4663H5.12695C4.86174 21.4663 4.60738 21.5717 4.41985 21.7592C4.23231 21.9468 4.12695 22.2011 4.12695 22.4663C4.12695 22.7316 4.23231 22.9859 4.41985 23.1734C4.60738 23.361 4.86174 23.4663 5.12695 23.4663H17.252C17.4723 24.3268 17.9727 25.0894 18.6743 25.634C19.3759 26.1786 20.2388 26.4742 21.127 26.4742C22.0151 26.4742 22.878 26.1786 23.5796 25.634C24.2813 25.0894 24.7817 24.3268 25.002 23.4663H27.127C27.3922 23.4663 27.6465 23.361 27.8341 23.1734C28.0216 22.9859 28.127 22.7316 28.127 22.4663C28.127 22.2011 28.0216 21.9468 27.8341 21.7592C27.6465 21.5717 27.3922 21.4663 27.127 21.4663ZM21.127 24.4663C20.7314 24.4663 20.3447 24.349 20.0158 24.1293C19.6869 23.9095 19.4306 23.5972 19.2792 23.2317C19.1278 22.8663 19.0882 22.4641 19.1654 22.0762C19.2426 21.6882 19.433 21.3318 19.7127 21.0521C19.9924 20.7724 20.3488 20.5819 20.7368 20.5048C21.1247 20.4276 21.5269 20.4672 21.8923 20.6186C22.2578 20.77 22.5701 21.0263 22.7899 21.3552C23.0097 21.6841 23.127 22.0708 23.127 22.4663C23.127 22.9968 22.9162 23.5055 22.5412 23.8806C22.1661 24.2556 21.6574 24.4663 21.127 24.4663Z" fill="#F0F0F0"/>
</svg>
