<svg width="12" height="13" viewBox="0 0 12 13" fill="none" xmlns="http://www.w3.org/2000/svg">
<path d="M10.2513 2.24603C9.69841 1.69039 9.03991 1.24983 8.31415 0.950065C7.5884 0.650296 6.80992 0.497312 6.02412 0.500036C2.73166 0.500036 0.0482413 3.17003 0.0482413 6.44602C0.0482413 7.49601 0.325628 8.51601 0.844221 9.41601L0 12.5L3.16583 11.672C4.0402 12.146 5.02311 12.398 6.02412 12.398C9.31658 12.398 12 9.72801 12 6.45202C12 4.86202 11.3789 3.36803 10.2513 2.24603ZM6.02412 11.39C5.13166 11.39 4.25729 11.15 3.49146 10.7L3.31055 10.592L1.42915 11.084L1.92965 9.26001L1.80905 9.07401C1.31321 8.28619 1.04993 7.37556 1.04925 6.44602C1.04925 3.72203 3.2804 1.50203 6.01809 1.50203C7.34472 1.50203 8.59296 2.01803 9.52764 2.95403C9.99044 3.41241 10.3572 3.95762 10.6067 4.55808C10.8561 5.15853 10.9833 5.80229 10.9809 6.45202C10.993 9.17601 8.76181 11.39 6.02412 11.39ZM8.74975 7.69401C8.59899 7.62201 7.86332 7.26202 7.73065 7.20802C7.59196 7.16002 7.49548 7.13602 7.39296 7.28002C7.29045 7.43002 7.00703 7.76601 6.92261 7.86201C6.83819 7.96401 6.74774 7.97601 6.59698 7.89801C6.44623 7.82601 5.96382 7.66401 5.39698 7.16002C4.95075 6.76402 4.65528 6.27802 4.56482 6.12802C4.4804 5.97802 4.55276 5.90002 4.63116 5.82202C4.69749 5.75602 4.78191 5.64802 4.85427 5.56402C4.92663 5.48002 4.95678 5.41402 5.00502 5.31802C5.05327 5.21602 5.02914 5.13202 4.99296 5.06002C4.95678 4.98802 4.65528 4.25602 4.53467 3.95603C4.41407 3.66803 4.28744 3.70403 4.19698 3.69803H3.90754C3.80502 3.69803 3.64824 3.73403 3.50955 3.88403C3.37688 4.03403 2.99095 4.39402 2.99095 5.12602C2.99095 5.85802 3.52764 6.56602 3.6 6.66202C3.67236 6.76402 4.65528 8.26401 6.15075 8.90601C6.50653 9.06201 6.78392 9.15201 7.001 9.21801C7.35678 9.33201 7.68241 9.31401 7.94171 9.27801C8.23115 9.23601 8.82814 8.91801 8.94874 8.57001C9.07538 8.22201 9.07538 7.92801 9.03316 7.86201C8.99095 7.79601 8.9005 7.76601 8.74975 7.69401Z" fill="#47C144"/>
</svg>
