<svg width="21" height="21" viewBox="0 0 21 21" fill="none" xmlns="http://www.w3.org/2000/svg">
<path d="M19.1953 6.57234C19.0105 6.36294 18.7833 6.19524 18.5287 6.0804C18.2741 5.96556 17.998 5.90619 17.7188 5.90625H13.125V4.59375C13.125 3.72351 12.7793 2.88891 12.1639 2.27356C11.5486 1.6582 10.714 1.3125 9.84375 1.3125C9.72183 1.31241 9.6023 1.34629 9.49856 1.41033C9.39482 1.47437 9.31096 1.56605 9.25641 1.67508L6.15727 7.875H2.625C2.2769 7.875 1.94306 8.01328 1.69692 8.25942C1.45078 8.50556 1.3125 8.8394 1.3125 9.1875V16.4062C1.3125 16.7543 1.45078 17.0882 1.69692 17.3343C1.94306 17.5805 2.2769 17.7188 2.625 17.7188H16.7344C17.214 17.7189 17.6772 17.544 18.037 17.2268C18.3968 16.9096 18.6284 16.472 18.6884 15.9961L19.6727 8.12109C19.7076 7.84385 19.6831 7.56235 19.6008 7.29531C19.5185 7.02828 19.3802 6.78183 19.1953 6.57234ZM2.625 9.1875H5.90625V16.4062H2.625V9.1875ZM18.3701 7.95703L17.3857 15.832C17.3657 15.9907 17.2885 16.1365 17.1686 16.2423C17.0487 16.348 16.8943 16.4063 16.7344 16.4062H7.21875V8.68629L10.2301 2.66273C10.6764 2.75206 11.078 2.99328 11.3665 3.34535C11.655 3.69742 11.8126 4.13857 11.8125 4.59375V6.5625C11.8125 6.73655 11.8816 6.90347 12.0047 7.02654C12.1278 7.14961 12.2947 7.21875 12.4688 7.21875H17.7188C17.8119 7.21872 17.9039 7.23851 17.9888 7.2768C18.0737 7.31509 18.1495 7.37101 18.2111 7.44085C18.2727 7.51068 18.3187 7.59283 18.3461 7.68182C18.3736 7.77082 18.3817 7.86464 18.3701 7.95703Z" fill="#F0F0F0"/>
</svg>
