<svg width="21" height="21" viewBox="0 0 21 21" fill="none" xmlns="http://www.w3.org/2000/svg">
<path d="M19.9032 7.91099L4.80949 2.66099C4.71056 2.62655 4.60483 2.6163 4.50113 2.63108C4.39743 2.64587 4.29877 2.68526 4.21341 2.74597C4.12804 2.80668 4.05845 2.88694 4.01045 2.98005C3.96245 3.07315 3.93744 3.17639 3.9375 3.28114V17.7186C3.9375 17.8927 4.00664 18.0596 4.12971 18.1827C4.25278 18.3058 4.4197 18.3749 4.59375 18.3749C4.7678 18.3749 4.93472 18.3058 5.05779 18.1827C5.18086 18.0596 5.25 17.8927 5.25 17.7186V14.2479L19.9032 9.1513C20.0322 9.10667 20.144 9.02296 20.2232 8.91181C20.3023 8.80066 20.3449 8.6676 20.3449 8.53114C20.3449 8.39469 20.3023 8.26163 20.2232 8.15048C20.144 8.03933 20.0322 7.95562 19.9032 7.91099ZM5.25 12.8583V4.204L17.69 8.53114L5.25 12.8583Z" fill="#F0F0F0"/>
</svg>
