<svg width="22" height="22" viewBox="0 0 22 22" fill="none" xmlns="http://www.w3.org/2000/svg">
<path d="M20.3334 11.6666V17C20.3334 17.1768 20.2631 17.3463 20.1381 17.4714C20.0131 17.5964 19.8435 17.6666 19.6667 17.6666H14.3334C14.1565 17.6666 13.987 17.5964 13.862 17.4714C13.7369 17.3463 13.6667 17.1768 13.6667 17C13.6667 16.8232 13.7369 16.6536 13.862 16.5286C13.987 16.4035 14.1565 16.3333 14.3334 16.3333H18.0575L11.6667 9.94246L8.80503 12.805C8.74311 12.8669 8.66958 12.9161 8.58865 12.9497C8.50772 12.9832 8.42097 13.0005 8.33336 13.0005C8.24575 13.0005 8.159 12.9832 8.07806 12.9497C7.99713 12.9161 7.92361 12.8669 7.86169 12.805L1.86169 6.80496C1.7366 6.67987 1.66632 6.51021 1.66632 6.3333C1.66632 6.15639 1.7366 5.98672 1.86169 5.86163C1.98679 5.73654 2.15645 5.66626 2.33336 5.66626C2.51027 5.66626 2.67993 5.73654 2.80502 5.86163L8.33336 11.3908L11.195 8.5283C11.2569 8.46631 11.3305 8.41714 11.4114 8.38359C11.4923 8.35004 11.5791 8.33277 11.6667 8.33277C11.7543 8.33277 11.8411 8.35004 11.922 8.38359C12.0029 8.41714 12.0764 8.46631 12.1384 8.5283L19 15.3908V11.6666C19 11.4898 19.0703 11.3202 19.1953 11.1952C19.3203 11.0702 19.4899 11 19.6667 11C19.8435 11 20.0131 11.0702 20.1381 11.1952C20.2631 11.3202 20.3334 11.4898 20.3334 11.6666Z" fill="#F0F0F0"/>
</svg>
