<svg width="12" height="12" viewBox="0 0 12 12" fill="none" xmlns="http://www.w3.org/2000/svg">
<g clip-path="url(#clip0_184_1879)">
<path fill-rule="evenodd" clip-rule="evenodd" d="M5.99997 0.673523C8.94166 0.673523 11.3264 3.05823 11.3264 5.99991C11.3264 8.94159 8.94166 11.3263 5.99997 11.3263C3.05829 11.3263 0.673584 8.94159 0.673584 5.99991C0.673584 3.05823 3.05829 0.673523 5.99997 0.673523ZM7.45672 8.60571C7.77402 8.92301 8.28847 8.92301 8.60577 8.60571C8.92307 8.28841 8.92307 7.77396 8.60577 7.45666L6.8125 5.66339V3.74299C6.8125 3.29426 6.44873 2.93049 6 2.93049C5.55126 2.93049 5.1875 3.29426 5.1875 3.74299V5.99993C5.1875 6.21542 5.2731 6.42208 5.42547 6.57446L7.45672 8.60571Z" fill="white"/>
</g>
<defs>
<clipPath id="clip0_184_1879">
<rect width="10.8333" height="10.8333" fill="white" transform="translate(0.583374 0.583313)"/>
</clipPath>
</defs>
</svg>
