<svg width="13" height="13" viewBox="0 0 13 13" fill="none" xmlns="http://www.w3.org/2000/svg">
<path d="M6.0938 3.28125C5.53754 3.28125 4.99376 3.4462 4.53125 3.75524C4.06873 4.06428 3.70824 4.50354 3.49537 5.01745C3.2825 5.53137 3.2268 6.09687 3.33532 6.64244C3.44384 7.18801 3.71171 7.68915 4.10505 8.08249C4.49839 8.47582 4.99953 8.74369 5.54511 8.85221C6.09068 8.96073 6.65619 8.90503 7.17011 8.69216C7.68403 8.47929 8.12329 8.1188 8.43233 7.65629C8.74137 7.19378 8.90633 6.65001 8.90633 6.09375C8.90555 5.34807 8.60898 4.63315 8.0817 4.10587C7.55442 3.57859 6.83949 3.28203 6.0938 3.28125ZM6.0938 7.96875C5.72296 7.96875 5.36044 7.85878 5.0521 7.65275C4.74375 7.44673 4.50343 7.15389 4.36151 6.81128C4.2196 6.46867 4.18247 6.09167 4.25481 5.72796C4.32716 5.36424 4.50574 5.03015 4.76797 4.76792C5.03019 4.5057 5.36429 4.32712 5.728 4.25478C6.09172 4.18243 6.46873 4.21956 6.81134 4.36148C7.15395 4.50339 7.44679 4.74371 7.65282 5.05206C7.85885 5.3604 7.96882 5.72291 7.96882 6.09375C7.96882 6.59103 7.77127 7.06794 7.41964 7.41957C7.068 7.7712 6.59109 7.96875 6.0938 7.96875ZM8.90633 0H3.28128C2.41131 0.000930601 1.57725 0.346932 0.962092 0.962084C0.346935 1.57724 0.000930609 2.41129 0 3.28125V8.90625C0.000930609 9.77621 0.346935 10.6103 0.962092 11.2254C1.57725 11.8406 2.41131 12.1866 3.28128 12.1875H8.90633C9.77629 12.1866 10.6104 11.8406 11.2255 11.2254C11.8407 10.6103 12.1867 9.77621 12.1876 8.90625V3.28125C12.1867 2.41129 11.8407 1.57724 11.2255 0.962084C10.6104 0.346932 9.77629 0.000930601 8.90633 0ZM11.2501 8.90625C11.2501 9.52785 11.0032 10.124 10.5636 10.5635C10.1241 11.0031 9.52793 11.25 8.90633 11.25H3.28128C2.65967 11.25 2.06352 11.0031 1.62398 10.5635C1.18444 10.124 0.937508 9.52785 0.937508 8.90625V3.28125C0.937508 2.65965 1.18444 2.06351 1.62398 1.62397C2.06352 1.18443 2.65967 0.9375 3.28128 0.9375H8.90633C9.52793 0.9375 10.1241 1.18443 10.5636 1.62397C11.0032 2.06351 11.2501 2.65965 11.2501 3.28125V8.90625ZM9.84383 3.04687C9.84383 3.18594 9.8026 3.32188 9.72534 3.43751C9.64807 3.55314 9.53826 3.64326 9.40978 3.69648C9.2813 3.7497 9.13992 3.76362 9.00353 3.73649C8.86714 3.70936 8.74185 3.64239 8.64351 3.54406C8.54518 3.44573 8.47821 3.32044 8.45108 3.18405C8.42395 3.04766 8.43788 2.90628 8.4911 2.7778C8.54431 2.64932 8.63444 2.53951 8.75006 2.46225C8.86569 2.38499 9.00164 2.34375 9.1407 2.34375C9.32719 2.34375 9.50603 2.41783 9.63789 2.54969C9.76975 2.68155 9.84383 2.86039 9.84383 3.04687Z" fill="#F0F0F0"/>
</svg>
