<svg width="20" height="20" viewBox="0 0 20 20" fill="none" xmlns="http://www.w3.org/2000/svg">
<rect width="20.0001" height="20.0004" rx="10" fill="#FFB800"/>
<path d="M7.24957 14.0003H12.7498L14.2498 9.33371L11.7497 10.4448L9.99968 7.33374L8.24961 10.4448L5.74951 9.33371L7.24957 14.0003Z" stroke="#141418" stroke-linecap="round" stroke-linejoin="round"/>
<path d="M5.75003 9.33332C6.16426 9.33332 6.50006 9.03484 6.50006 8.66666C6.50006 8.29847 6.16426 8 5.75003 8C5.3358 8 5 8.29847 5 8.66666C5 9.03484 5.3358 9.33332 5.75003 9.33332Z" stroke="#141418"/>
<path d="M10.0008 7.33332C10.415 7.33332 10.7508 7.03484 10.7508 6.66666C10.7508 6.29847 10.415 6 10.0008 6C9.58653 6 9.25073 6.29847 9.25073 6.66666C9.25073 7.03484 9.58653 7.33332 10.0008 7.33332Z" stroke="#141418"/>
<path d="M14.25 9.33332C14.6643 9.33332 15.0001 9.03484 15.0001 8.66666C15.0001 8.29847 14.6643 8 14.25 8C13.8358 8 13.5 8.29847 13.5 8.66666C13.5 9.03484 13.8358 9.33332 14.25 9.33332Z" stroke="#141418"/>
</svg>
