<svg width="150" height="36" viewBox="0 0 150 36" fill="none" xmlns="http://www.w3.org/2000/svg">
<path d="M0.684 15V12.66L7.992 6.666L10.296 7.17H0.738V4.74H11.556V7.08L4.266 13.074L2.304 12.57H11.592V15H0.684ZM22.4802 15L22.0302 11.274L22.5162 9.87L22.0302 8.484L22.4802 4.74H25.9542L25.3242 9.87L25.9542 15H22.4802ZM23.3082 9.87C23.1282 10.962 22.7862 11.916 22.2822 12.732C21.7782 13.536 21.1422 14.166 20.3742 14.622C19.6062 15.066 18.7422 15.288 17.7822 15.288C16.7742 15.288 15.8862 15.06 15.1182 14.604C14.3622 14.148 13.7682 13.518 13.3362 12.714C12.9042 11.898 12.6882 10.95 12.6882 9.87C12.6882 8.79 12.9042 7.848 13.3362 7.044C13.7682 6.228 14.3622 5.592 15.1182 5.136C15.8862 4.68 16.7742 4.452 17.7822 4.452C18.7422 4.452 19.6062 4.68 20.3742 5.136C21.1422 5.58 21.7782 6.204 22.2822 7.008C22.7982 7.812 23.1402 8.766 23.3082 9.87ZM16.0722 9.87C16.0722 10.422 16.1862 10.914 16.4142 11.346C16.6422 11.766 16.9542 12.102 17.3502 12.354C17.7582 12.594 18.2262 12.714 18.7542 12.714C19.2822 12.714 19.7802 12.594 20.2482 12.354C20.7282 12.102 21.1482 11.766 21.5082 11.346C21.8682 10.914 22.1382 10.422 22.3182 9.87C22.1382 9.318 21.8682 8.832 21.5082 8.412C21.1482 7.98 20.7282 7.644 20.2482 7.404C19.7802 7.152 19.2822 7.026 18.7542 7.026C18.2262 7.026 17.7582 7.152 17.3502 7.404C16.9542 7.644 16.6422 7.98 16.4142 8.412C16.1862 8.832 16.0722 9.318 16.0722 9.87ZM27.3655 4.74H30.7495L31.3615 8.43V15H28.0135V8.142L27.3655 4.74ZM36.2575 4.596V7.476C35.9335 7.404 35.6095 7.35 35.2855 7.314C34.9735 7.278 34.6855 7.26 34.4215 7.26C33.8455 7.26 33.3235 7.38 32.8555 7.62C32.3995 7.848 32.0335 8.214 31.7575 8.718C31.4935 9.222 31.3615 9.876 31.3615 10.68L30.6955 9.852C30.7795 9.12 30.9175 8.43 31.1095 7.782C31.3015 7.134 31.5655 6.564 31.9015 6.072C32.2375 5.568 32.6515 5.172 33.1435 4.884C33.6475 4.596 34.2535 4.452 34.9615 4.452C35.1655 4.452 35.3815 4.464 35.6095 4.488C35.8375 4.512 36.0535 4.548 36.2575 4.596ZM37.6073 4.596L39.2633 4.938L40.9373 4.596V15H37.6073V4.596ZM39.2813 3.66C38.6933 3.66 38.2133 3.51 37.8413 3.21C37.4693 2.898 37.2833 2.49 37.2833 1.986C37.2833 1.47 37.4693 1.062 37.8413 0.762C38.2133 0.461999 38.6933 0.311999 39.2813 0.311999C39.8813 0.311999 40.3613 0.461999 40.7213 0.762C41.0813 1.062 41.2613 1.47 41.2613 1.986C41.2613 2.49 41.0813 2.898 40.7213 3.21C40.3613 3.51 39.8813 3.66 39.2813 3.66ZM42.6057 4.74H45.9357L46.6017 8.736V15H43.2537V8.232L42.6057 4.74ZM50.4357 4.452C51.4197 4.452 52.2537 4.65 52.9377 5.046C53.6337 5.442 54.1617 6 54.5217 6.72C54.8937 7.428 55.0797 8.28 55.0797 9.276V15H51.7317V9.78C51.7317 8.928 51.5217 8.286 51.1017 7.854C50.6817 7.41 50.0817 7.188 49.3017 7.188C48.7497 7.188 48.2697 7.308 47.8617 7.548C47.4537 7.776 47.1417 8.106 46.9257 8.538C46.7097 8.958 46.6017 9.462 46.6017 10.05L45.5397 9.492C45.6717 8.4 45.9657 7.482 46.4217 6.738C46.8897 5.994 47.4657 5.43 48.1497 5.046C48.8457 4.65 49.6077 4.452 50.4357 4.452ZM66.4255 15L65.9755 11.274L66.4615 9.87L65.9755 8.484L66.4255 4.74H69.8995L69.2695 9.87L69.8995 15H66.4255ZM67.2535 9.87C67.0735 10.962 66.7315 11.916 66.2275 12.732C65.7235 13.536 65.0875 14.166 64.3195 14.622C63.5515 15.066 62.6875 15.288 61.7275 15.288C60.7195 15.288 59.8315 15.06 59.0635 14.604C58.3075 14.148 57.7135 13.518 57.2815 12.714C56.8495 11.898 56.6335 10.95 56.6335 9.87C56.6335 8.79 56.8495 7.848 57.2815 7.044C57.7135 6.228 58.3075 5.592 59.0635 5.136C59.8315 4.68 60.7195 4.452 61.7275 4.452C62.6875 4.452 63.5515 4.68 64.3195 5.136C65.0875 5.58 65.7235 6.204 66.2275 7.008C66.7435 7.812 67.0855 8.766 67.2535 9.87ZM60.0175 9.87C60.0175 10.422 60.1315 10.914 60.3595 11.346C60.5875 11.766 60.8995 12.102 61.2955 12.354C61.7035 12.594 62.1715 12.714 62.6995 12.714C63.2275 12.714 63.7255 12.594 64.1935 12.354C64.6735 12.102 65.0935 11.766 65.4535 11.346C65.8135 10.914 66.0835 10.422 66.2635 9.87C66.0835 9.318 65.8135 8.832 65.4535 8.412C65.0935 7.98 64.6735 7.644 64.1935 7.404C63.7255 7.152 63.2275 7.026 62.6995 7.026C62.1715 7.026 61.7035 7.152 61.2955 7.404C60.8995 7.644 60.5875 7.98 60.3595 8.412C60.1315 8.832 60.0175 9.318 60.0175 9.87ZM4.41 32.282L3.492 31.976L9.378 24.74H12.96L4.086 35H1.08V21.14H4.41V32.282ZM6.462 29.978L8.946 28.16L13.23 35H9.432L6.462 29.978ZM22.9899 35L22.5399 31.274L23.0259 29.87L22.5399 28.484L22.9899 24.74H26.4639L25.8339 29.87L26.4639 35H22.9899ZM23.8179 29.87C23.6379 30.962 23.2959 31.916 22.7919 32.732C22.2879 33.536 21.6519 34.166 20.8839 34.622C20.1159 35.066 19.2519 35.288 18.2919 35.288C17.2839 35.288 16.3959 35.06 15.6279 34.604C14.8719 34.148 14.2779 33.518 13.8459 32.714C13.4139 31.898 13.1979 30.95 13.1979 29.87C13.1979 28.79 13.4139 27.848 13.8459 27.044C14.2779 26.228 14.8719 25.592 15.6279 25.136C16.3959 24.68 17.2839 24.452 18.2919 24.452C19.2519 24.452 20.1159 24.68 20.8839 25.136C21.6519 25.58 22.2879 26.204 22.7919 27.008C23.3079 27.812 23.6499 28.766 23.8179 29.87ZM16.5819 29.87C16.5819 30.422 16.6959 30.914 16.9239 31.346C17.1519 31.766 17.4639 32.102 17.8599 32.354C18.2679 32.594 18.7359 32.714 19.2639 32.714C19.7919 32.714 20.2899 32.594 20.7579 32.354C21.2379 32.102 21.6579 31.766 22.0179 31.346C22.3779 30.914 22.6479 30.422 22.8279 29.87C22.6479 29.318 22.3779 28.832 22.0179 28.412C21.6579 27.98 21.2379 27.644 20.7579 27.404C20.2899 27.152 19.7919 27.026 19.2639 27.026C18.7359 27.026 18.2679 27.152 17.8599 27.404C17.4639 27.644 17.1519 27.98 16.9239 28.412C16.6959 28.832 16.5819 29.318 16.5819 29.87ZM27.8752 24.74H31.2053L31.8713 28.736V35H28.5233V28.232L27.8752 24.74ZM35.7053 24.452C36.6893 24.452 37.5233 24.65 38.2073 25.046C38.9033 25.442 39.4313 26 39.7913 26.72C40.1633 27.428 40.3493 28.28 40.3493 29.276V35H37.0013V29.78C37.0013 28.928 36.7913 28.286 36.3712 27.854C35.9513 27.41 35.3513 27.188 34.5713 27.188C34.0193 27.188 33.5393 27.308 33.1313 27.548C32.7233 27.776 32.4113 28.106 32.1953 28.538C31.9793 28.958 31.8713 29.462 31.8713 30.05L30.8093 29.492C30.9413 28.4 31.2353 27.482 31.6913 26.738C32.1593 25.994 32.7353 25.43 33.4193 25.046C34.1153 24.65 34.8773 24.452 35.7053 24.452ZM48.257 35.288C47.033 35.288 45.935 35.06 44.963 34.604C44.003 34.148 43.247 33.512 42.695 32.696C42.143 31.88 41.867 30.926 41.867 29.834C41.867 28.766 42.131 27.83 42.659 27.026C43.187 26.222 43.913 25.592 44.837 25.136C45.773 24.68 46.829 24.452 48.005 24.452C49.205 24.452 50.237 24.716 51.101 25.244C51.965 25.772 52.631 26.516 53.099 27.476C53.567 28.436 53.801 29.564 53.801 30.86H44.549V28.754H51.965L50.759 29.51C50.723 28.946 50.585 28.472 50.345 28.088C50.117 27.692 49.811 27.392 49.427 27.188C49.043 26.972 48.587 26.864 48.059 26.864C47.483 26.864 46.985 26.978 46.565 27.206C46.145 27.434 45.815 27.752 45.575 28.16C45.347 28.568 45.233 29.042 45.233 29.582C45.233 30.266 45.383 30.848 45.683 31.328C45.995 31.808 46.439 32.174 47.015 32.426C47.603 32.678 48.317 32.804 49.157 32.804C49.925 32.804 50.693 32.702 51.461 32.498C52.229 32.282 52.919 31.982 53.531 31.598V33.776C52.835 34.256 52.037 34.628 51.137 34.892C50.249 35.156 49.289 35.288 48.257 35.288ZM67.0227 31.706C67.0227 32.474 66.7947 33.128 66.3387 33.668C65.8947 34.196 65.2407 34.598 64.3767 34.874C63.5127 35.15 62.4627 35.288 61.2267 35.288C59.9667 35.288 58.8627 35.132 57.9147 34.82C56.9667 34.508 56.2287 34.07 55.7007 33.506C55.1727 32.942 54.8907 32.288 54.8547 31.544H58.2567C58.3287 31.844 58.4967 32.108 58.7607 32.336C59.0367 32.564 59.3907 32.738 59.8227 32.858C60.2547 32.966 60.7647 33.02 61.3527 33.02C62.1447 33.02 62.7447 32.936 63.1527 32.768C63.5607 32.6 63.7647 32.348 63.7647 32.012C63.7647 31.76 63.6147 31.568 63.3147 31.436C63.0267 31.304 62.5047 31.208 61.7487 31.148L59.8767 31.004C58.7007 30.908 57.7647 30.722 57.0687 30.446C56.3727 30.158 55.8747 29.792 55.5747 29.348C55.2867 28.904 55.1427 28.406 55.1427 27.854C55.1427 27.098 55.3767 26.474 55.8447 25.982C56.3247 25.478 56.9847 25.1 57.8247 24.848C58.6647 24.584 59.6487 24.452 60.7767 24.452C61.9047 24.452 62.9067 24.602 63.7827 24.902C64.6707 25.202 65.3787 25.616 65.9067 26.144C66.4467 26.672 66.7527 27.29 66.8247 27.998H63.4227C63.3747 27.758 63.2427 27.536 63.0267 27.332C62.8227 27.128 62.5227 26.966 62.1267 26.846C61.7427 26.714 61.2387 26.648 60.6147 26.648C59.9067 26.648 59.3667 26.726 58.9947 26.882C58.6227 27.038 58.4367 27.266 58.4367 27.566C58.4367 27.794 58.5507 27.98 58.7787 28.124C59.0067 28.256 59.4387 28.346 60.0747 28.394L62.5047 28.574C63.6567 28.67 64.5567 28.856 65.2047 29.132C65.8647 29.396 66.3327 29.744 66.6087 30.176C66.8847 30.608 67.0227 31.118 67.0227 31.706ZM72.0155 32.282L71.0975 31.976L76.9835 24.74H80.5655L71.6915 35H68.6855V21.14H72.0155V32.282ZM74.0675 29.978L76.5515 28.16L80.8355 35H77.0375L74.0675 29.978ZM90.5954 35L90.1454 31.274L90.6314 29.87L90.1454 28.484L90.5954 24.74H94.0694L93.4394 29.87L94.0694 35H90.5954ZM91.4234 29.87C91.2434 30.962 90.9014 31.916 90.3974 32.732C89.8934 33.536 89.2574 34.166 88.4894 34.622C87.7214 35.066 86.8574 35.288 85.8974 35.288C84.8894 35.288 84.0014 35.06 83.2334 34.604C82.4774 34.148 81.8834 33.518 81.4514 32.714C81.0194 31.898 80.8034 30.95 80.8034 29.87C80.8034 28.79 81.0194 27.848 81.4514 27.044C81.8834 26.228 82.4774 25.592 83.2334 25.136C84.0014 24.68 84.8894 24.452 85.8974 24.452C86.8574 24.452 87.7214 24.68 88.4894 25.136C89.2574 25.58 89.8934 26.204 90.3974 27.008C90.9134 27.812 91.2554 28.766 91.4234 29.87ZM84.1874 29.87C84.1874 30.422 84.3014 30.914 84.5294 31.346C84.7574 31.766 85.0694 32.102 85.4654 32.354C85.8734 32.594 86.3414 32.714 86.8694 32.714C87.3974 32.714 87.8954 32.594 88.3634 32.354C88.8434 32.102 89.2634 31.766 89.6234 31.346C89.9834 30.914 90.2534 30.422 90.4334 29.87C90.2534 29.318 89.9834 28.832 89.6234 28.412C89.2634 27.98 88.8434 27.644 88.3634 27.404C87.8954 27.152 87.3974 27.026 86.8694 27.026C86.3414 27.026 85.8734 27.152 85.4654 27.404C85.0694 27.644 84.7574 27.98 84.5294 28.412C84.3014 28.832 84.1874 29.318 84.1874 29.87ZM95.4807 24.74H98.8107L99.4767 28.736V35H96.1287V28.232L95.4807 24.74ZM103.311 24.452C104.295 24.452 105.129 24.65 105.813 25.046C106.509 25.442 107.037 26 107.397 26.72C107.769 27.428 107.955 28.28 107.955 29.276V35H104.607V29.78C104.607 28.928 104.397 28.286 103.977 27.854C103.557 27.41 102.957 27.188 102.177 27.188C101.625 27.188 101.145 27.308 100.737 27.548C100.329 27.776 100.017 28.106 99.8007 28.538C99.5847 28.958 99.4767 29.462 99.4767 30.05L98.4147 29.492C98.5467 28.4 98.8407 27.482 99.2967 26.738C99.7647 25.994 100.341 25.43 101.025 25.046C101.721 24.65 102.483 24.452 103.311 24.452ZM115.952 35.288C114.656 35.288 113.522 35.06 112.55 34.604C111.578 34.148 110.822 33.512 110.282 32.696C109.742 31.88 109.472 30.938 109.472 29.87C109.472 28.79 109.742 27.848 110.282 27.044C110.822 26.228 111.578 25.592 112.55 25.136C113.534 24.68 114.668 24.452 115.952 24.452C117.248 24.452 118.382 24.68 119.354 25.136C120.326 25.592 121.082 26.228 121.622 27.044C122.174 27.848 122.45 28.79 122.45 29.87C122.45 30.95 122.174 31.898 121.622 32.714C121.082 33.518 120.326 34.148 119.354 34.604C118.382 35.06 117.248 35.288 115.952 35.288ZM115.952 32.768C116.612 32.768 117.17 32.654 117.626 32.426C118.094 32.186 118.448 31.85 118.688 31.418C118.94 30.986 119.066 30.47 119.066 29.87C119.066 29.27 118.94 28.754 118.688 28.322C118.448 27.878 118.094 27.542 117.626 27.314C117.17 27.074 116.612 26.954 115.952 26.954C115.316 26.954 114.764 27.074 114.296 27.314C113.828 27.542 113.468 27.878 113.216 28.322C112.964 28.754 112.838 29.27 112.838 29.87C112.838 30.47 112.964 30.986 113.216 31.418C113.468 31.85 113.828 32.186 114.296 32.426C114.764 32.654 115.316 32.768 115.952 32.768ZM129.866 33.434L128.696 33.416L132.404 24.74H135.968L131.126 35H127.328L122.486 24.74H126.176L129.866 33.434ZM145.879 35L145.429 31.274L145.915 29.87L145.429 28.484L145.879 24.74H149.353L148.723 29.87L149.353 35H145.879ZM146.707 29.87C146.527 30.962 146.185 31.916 145.681 32.732C145.177 33.536 144.541 34.166 143.773 34.622C143.005 35.066 142.141 35.288 141.181 35.288C140.173 35.288 139.285 35.06 138.517 34.604C137.761 34.148 137.167 33.518 136.735 32.714C136.303 31.898 136.087 30.95 136.087 29.87C136.087 28.79 136.303 27.848 136.735 27.044C137.167 26.228 137.761 25.592 138.517 25.136C139.285 24.68 140.173 24.452 141.181 24.452C142.141 24.452 143.005 24.68 143.773 25.136C144.541 25.58 145.177 26.204 145.681 27.008C146.197 27.812 146.539 28.766 146.707 29.87ZM139.471 29.87C139.471 30.422 139.585 30.914 139.813 31.346C140.041 31.766 140.353 32.102 140.749 32.354C141.157 32.594 141.625 32.714 142.153 32.714C142.681 32.714 143.179 32.594 143.647 32.354C144.127 32.102 144.547 31.766 144.907 31.346C145.267 30.914 145.537 30.422 145.717 29.87C145.537 29.318 145.267 28.832 144.907 28.412C144.547 27.98 144.127 27.644 143.647 27.404C143.179 27.152 142.681 27.026 142.153 27.026C141.625 27.026 141.157 27.152 140.749 27.404C140.353 27.644 140.041 27.98 139.813 28.412C139.585 28.832 139.471 29.318 139.471 29.87Z" fill="#F0F0F0"/>
</svg>
