<svg width="15" height="15" viewBox="0 0 15 15" fill="none" xmlns="http://www.w3.org/2000/svg">
<path d="M9.03516 2.25296C9.04706 2.20832 9.06765 2.16646 9.09574 2.12978C9.12383 2.0931 9.15888 2.06231 9.19888 2.03919C9.23887 2.01606 9.28304 2.00104 9.32884 1.99499C9.37465 1.98895 9.4212 1.99199 9.46583 2.00394C10.315 2.22544 11.0897 2.66931 11.7102 3.28983C12.3307 3.91035 12.7746 4.68508 12.9961 5.53421C13.0081 5.57884 13.0111 5.62539 13.005 5.6712C12.999 5.717 12.984 5.76117 12.9609 5.80116C12.9377 5.84116 12.9069 5.87621 12.8703 5.9043C12.8336 5.93239 12.7917 5.95298 12.7471 5.96488C12.7175 5.97277 12.6869 5.97671 12.6563 5.9766C12.5788 5.97664 12.5035 5.95111 12.442 5.90396C12.3806 5.85681 12.3364 5.79068 12.3164 5.71586C12.1263 4.98647 11.745 4.32099 11.212 3.788C10.679 3.25501 10.0136 2.87379 9.28419 2.68363C9.23954 2.67173 9.19768 2.65114 9.161 2.62305C9.12432 2.59496 9.09353 2.55991 9.07041 2.51991C9.04728 2.47992 9.03226 2.43575 9.02621 2.38995C9.02017 2.34414 9.02321 2.29759 9.03516 2.25296ZM8.81544 4.55863C9.66797 4.78597 10.2141 5.33207 10.4414 6.18461C10.4614 6.25943 10.5056 6.32556 10.567 6.37271C10.6285 6.41986 10.7038 6.44539 10.7813 6.44535C10.8119 6.44546 10.8425 6.44152 10.8721 6.43363C10.9167 6.42173 10.9586 6.40114 10.9953 6.37305C11.0319 6.34496 11.0627 6.30991 11.0859 6.26991C11.109 6.22992 11.124 6.18575 11.13 6.13995C11.1361 6.09414 11.1331 6.04759 11.1211 6.00296C10.8281 4.90668 10.0934 4.17191 8.99708 3.87894C8.95245 3.86701 8.90591 3.864 8.86011 3.87005C8.81431 3.87611 8.77016 3.89114 8.73017 3.91426C8.6494 3.96096 8.5905 4.03783 8.56641 4.12796C8.54233 4.2181 8.55503 4.31411 8.60173 4.39487C8.64843 4.47564 8.7253 4.53454 8.81544 4.55863ZM13.4701 10.2422C13.3697 11.0082 12.9938 11.7114 12.4127 12.2203C11.8316 12.7293 11.085 13.0093 10.3125 13.0078C5.72462 13.0078 1.99219 9.27543 1.99219 4.68754C1.99071 3.91529 2.27041 3.16892 2.77903 2.58784C3.28766 2.00675 3.99042 1.6307 4.75606 1.52992C4.93231 1.5085 5.11075 1.54484 5.26458 1.63349C5.41842 1.72213 5.53934 1.85829 5.60919 2.02152L6.84551 4.78128C6.9001 4.90622 6.92269 5.0428 6.91123 5.17866C6.89977 5.31452 6.85463 5.44538 6.77989 5.55941C6.77235 5.57102 6.76413 5.58217 6.75528 5.59281L5.52071 7.06117C5.51321 7.07639 5.50932 7.09313 5.50932 7.11009C5.50932 7.12706 5.51321 7.1438 5.52071 7.15902C5.96954 8.07777 6.93282 9.03402 7.86446 9.48226C7.88001 9.48935 7.89701 9.49273 7.91409 9.49212C7.93118 9.49151 7.94789 9.48693 7.9629 9.47875L9.40958 8.24828C9.4199 8.23929 9.43087 8.23106 9.44239 8.22367C9.55591 8.14798 9.68652 8.1018 9.82239 8.08932C9.95826 8.07684 10.0951 8.09845 10.2205 8.15218L12.9885 9.39261C13.1495 9.46399 13.2833 9.58533 13.3701 9.73866C13.4568 9.89198 13.4919 10.0692 13.4701 10.244V10.2422ZM12.7734 10.1555C12.7754 10.131 12.7696 10.1065 12.7569 10.0855C12.7442 10.0644 12.7252 10.0479 12.7025 10.0383L9.93399 8.79789C9.91886 8.79205 9.90266 8.78955 9.88648 8.79056C9.87029 8.79157 9.85452 8.79607 9.84024 8.80375L8.39415 10.0342C8.3836 10.043 8.37247 10.0512 8.36133 10.0588C8.24338 10.1375 8.10705 10.1842 7.96564 10.1945C7.82424 10.2048 7.68258 10.1782 7.5545 10.1174C6.47872 9.59769 5.40645 8.53539 4.88672 7.46957C4.8256 7.34223 4.79839 7.20126 4.80773 7.06032C4.81707 6.91937 4.86265 6.78323 4.94004 6.66507C4.94759 6.65332 4.95601 6.64216 4.96524 6.63168L6.19922 5.16332C6.20628 5.14797 6.20993 5.13128 6.20993 5.11439C6.20993 5.0975 6.20628 5.08081 6.19922 5.06546L4.96524 2.30336C4.9571 2.28119 4.94245 2.262 4.92321 2.2483C4.90397 2.2346 4.88104 2.22704 4.85743 2.2266H4.84395C4.24802 2.30587 3.70131 2.59934 3.30592 3.0522C2.91053 3.50506 2.69348 4.08636 2.69532 4.68754C2.69532 8.88754 6.11251 12.3047 10.3125 12.3047C10.9138 12.3065 11.4951 12.0894 11.948 11.6939C12.4009 11.2984 12.6943 10.7515 12.7734 10.1555Z" fill="#2E1C9B"/>
</svg>
