<svg width="33" height="33" viewBox="0 0 33 33" fill="none" xmlns="http://www.w3.org/2000/svg">
<path d="M28.4169 6.37207V9.87207C28.4169 10.1373 28.3115 10.3916 28.124 10.5792C27.9364 10.7667 27.6821 10.8721 27.4169 10.8721C27.1517 10.8721 26.8973 10.7667 26.7098 10.5792C26.5222 10.3916 26.4169 10.1373 26.4169 9.87207V6.37207H22.9169C22.6517 6.37207 22.3973 6.26671 22.2098 6.07918C22.0222 5.89164 21.9169 5.63729 21.9169 5.37207C21.9169 5.10685 22.0222 4.8525 22.2098 4.66496C22.3973 4.47743 22.6517 4.37207 22.9169 4.37207H26.4169C26.9473 4.37207 27.456 4.58278 27.8311 4.95786C28.2062 5.33293 28.4169 5.84164 28.4169 6.37207ZM27.4169 21.8721C27.1517 21.8721 26.8973 21.9774 26.7098 22.165C26.5222 22.3525 26.4169 22.6069 26.4169 22.8721V26.3721H22.9169C22.6517 26.3721 22.3973 26.4774 22.2098 26.665C22.0222 26.8525 21.9169 27.1069 21.9169 27.3721C21.9169 27.6373 22.0222 27.8916 22.2098 28.0792C22.3973 28.2667 22.6517 28.3721 22.9169 28.3721H26.4169C26.9473 28.3721 27.456 28.1614 27.8311 27.7863C28.2062 27.4112 28.4169 26.9025 28.4169 26.3721V22.8721C28.4169 22.6069 28.3115 22.3525 28.124 22.165C27.9364 21.9774 27.6821 21.8721 27.4169 21.8721ZM9.91687 26.3721H6.41687V22.8721C6.41687 22.6069 6.31151 22.3525 6.12398 22.165C5.93644 21.9774 5.68209 21.8721 5.41687 21.8721C5.15165 21.8721 4.8973 21.9774 4.70976 22.165C4.52223 22.3525 4.41687 22.6069 4.41687 22.8721V26.3721C4.41687 26.9025 4.62758 27.4112 5.00266 27.7863C5.37773 28.1614 5.88644 28.3721 6.41687 28.3721H9.91687C10.1821 28.3721 10.4364 28.2667 10.624 28.0792C10.8115 27.8916 10.9169 27.6373 10.9169 27.3721C10.9169 27.1069 10.8115 26.8525 10.624 26.665C10.4364 26.4774 10.1821 26.3721 9.91687 26.3721ZM5.41687 10.8721C5.68209 10.8721 5.93644 10.7667 6.12398 10.5792C6.31151 10.3916 6.41687 10.1373 6.41687 9.87207V6.37207H9.91687C10.1821 6.37207 10.4364 6.26671 10.624 6.07918C10.8115 5.89164 10.9169 5.63729 10.9169 5.37207C10.9169 5.10685 10.8115 4.8525 10.624 4.66496C10.4364 4.47743 10.1821 4.37207 9.91687 4.37207H6.41687C5.88644 4.37207 5.37773 4.58278 5.00266 4.95786C4.62758 5.33293 4.41687 5.84164 4.41687 6.37207V9.87207C4.41687 10.1373 4.52223 10.3916 4.70976 10.5792C4.8973 10.7667 5.15165 10.8721 5.41687 10.8721ZM22.4169 22.3721C22.2615 22.3724 22.1082 22.3366 21.9691 22.2673C21.8301 22.1981 21.709 22.0975 21.6156 21.9733C21.0102 21.166 20.2251 20.5108 19.3225 20.0595C18.4199 19.6083 17.4247 19.3733 16.4156 19.3733C15.4065 19.3733 14.4113 19.6083 13.5087 20.0595C12.6062 20.5108 11.8211 21.166 11.2156 21.9733C11.0562 22.1855 10.8189 22.3256 10.5562 22.3629C10.2934 22.4002 10.0265 22.3315 9.81437 22.1721C9.6022 22.0126 9.46206 21.7754 9.42479 21.5126C9.38751 21.2498 9.45616 20.983 9.61562 20.7708C10.5019 19.5842 11.683 18.6499 13.0419 18.0608C12.2973 17.381 11.7756 16.4919 11.5453 15.5103C11.315 14.5287 11.3869 13.5004 11.7514 12.5603C12.116 11.6203 12.7563 10.8124 13.5882 10.2428C14.4201 9.67313 15.4049 9.3683 16.4131 9.3683C17.4214 9.3683 18.4061 9.67313 19.238 10.2428C20.07 10.8124 20.7102 11.6203 21.0748 12.5603C21.4394 13.5004 21.5112 14.5287 21.281 15.5103C21.0507 16.4919 20.529 17.381 19.7844 18.0608C21.1441 18.6496 22.3262 19.5838 23.2131 20.7708C23.3247 20.9191 23.3928 21.0956 23.4099 21.2804C23.4269 21.4652 23.3921 21.6511 23.3095 21.8173C23.2268 21.9835 23.0996 22.1234 22.9419 22.2214C22.7843 22.3194 22.6025 22.3715 22.4169 22.3721ZM16.4169 17.3721C17.0102 17.3721 17.5902 17.1961 18.0836 16.8665C18.5769 16.5368 18.9614 16.0683 19.1885 15.5201C19.4156 14.9719 19.475 14.3687 19.3592 13.7868C19.2435 13.2049 18.9577 12.6703 18.5382 12.2507C18.1186 11.8312 17.5841 11.5455 17.0021 11.4297C16.4202 11.314 15.817 11.3734 15.2688 11.6004C14.7206 11.8275 14.2521 12.212 13.9225 12.7054C13.5928 13.1987 13.4169 13.7787 13.4169 14.3721C13.4169 15.1677 13.7329 15.9308 14.2955 16.4934C14.8582 17.056 15.6212 17.3721 16.4169 17.3721Z" fill="#F0F0F0"/>
</svg>
