<svg width="33" height="33" viewBox="0 0 33 33" fill="none" xmlns="http://www.w3.org/2000/svg">
<path d="M27.6905 20.1294C27.5479 20.0394 27.3849 19.987 27.2166 19.977C27.0484 19.9669 26.8803 19.9996 26.728 20.0719C26.3469 20.2521 25.9265 20.333 25.5058 20.3072C25.0851 20.2813 24.6777 20.1495 24.3216 19.924C23.9655 19.6985 23.6722 19.3866 23.469 19.0173C23.2657 18.648 23.1592 18.2334 23.1592 17.8119C23.1592 17.3904 23.2657 16.9757 23.469 16.6064C23.6722 16.2372 23.9655 15.9253 24.3216 15.6998C24.6777 15.4742 25.0851 15.3424 25.5058 15.3166C25.9265 15.2907 26.3469 15.3717 26.728 15.5519C26.8804 15.6242 27.0487 15.6568 27.2172 15.6466C27.3856 15.6364 27.5487 15.5838 27.6913 15.4936C27.8339 15.4034 27.9514 15.2785 28.0328 15.1307C28.1141 14.9829 28.1568 14.8169 28.1567 14.6481V9.31187C28.1567 8.78144 27.946 8.27273 27.571 7.89766C27.1959 7.52259 26.6872 7.31187 26.1567 7.31187H21.6292C21.6478 7.14586 21.657 6.97892 21.6567 6.81187C21.6558 6.19728 21.5294 5.58934 21.2852 5.02533C21.041 4.46132 20.6843 3.95312 20.2367 3.53187C19.6171 2.94989 18.8452 2.55533 18.0106 2.3939C17.1759 2.23246 16.3126 2.31075 15.5207 2.6197C14.7287 2.92864 14.0404 3.45561 13.5355 4.13957C13.0307 4.82354 12.7299 5.63652 12.668 6.48437C12.6488 6.76017 12.6546 7.03714 12.6855 7.31187H8.15674C7.6263 7.31187 7.1176 7.52259 6.74252 7.89766C6.36745 8.27273 6.15674 8.78144 6.15674 9.31187V13.3394C5.99072 13.3208 5.82379 13.3116 5.65674 13.3119C5.04215 13.3129 4.43424 13.4393 3.87024 13.6835C3.30624 13.9277 2.79803 14.2844 2.37674 14.7319C1.95242 15.1801 1.6257 15.7114 1.41721 16.2924C1.20873 16.8733 1.12301 17.4911 1.16549 18.1069C1.23715 19.1911 1.69783 20.213 2.46283 20.9846C3.22782 21.7563 4.24568 22.2258 5.32924 22.3069C5.60502 22.3267 5.88204 22.3208 6.15674 22.2894V26.3119C6.15674 26.8423 6.36745 27.351 6.74252 27.7261C7.1176 28.1012 7.6263 28.3119 8.15674 28.3119H26.1567C26.6872 28.3119 27.1959 28.1012 27.571 27.7261C27.946 27.351 28.1567 26.8423 28.1567 26.3119V20.9756C28.1568 20.8067 28.1141 20.6404 28.0326 20.4925C27.9511 20.3445 27.8334 20.2196 27.6905 20.1294ZM26.1567 26.3119H8.15674V20.9756C8.15679 20.8069 8.11415 20.6409 8.03277 20.493C7.95139 20.3452 7.83392 20.2204 7.69131 20.1302C7.5487 20.04 7.38559 19.9873 7.21715 19.9771C7.04871 19.9669 6.88044 19.9995 6.72799 20.0719C6.34694 20.2521 5.92652 20.333 5.50581 20.3072C5.08509 20.2813 4.67775 20.1495 4.32164 19.924C3.96553 19.6985 3.67222 19.3866 3.46897 19.0173C3.26573 18.648 3.15916 18.2334 3.15916 17.8119C3.15916 17.3904 3.26573 16.9757 3.46897 16.6064C3.67222 16.2372 3.96553 15.9253 4.32164 15.6998C4.67775 15.4742 5.08509 15.3424 5.50581 15.3166C5.92652 15.2907 6.34694 15.3717 6.72799 15.5519C6.88044 15.6242 7.04871 15.6568 7.21715 15.6466C7.38559 15.6364 7.5487 15.5838 7.69131 15.4936C7.83392 15.4034 7.95139 15.2785 8.03277 15.1307C8.11415 14.9829 8.15679 14.8169 8.15674 14.6481V9.31187H13.993C14.1617 9.31193 14.3277 9.26928 14.4756 9.1879C14.6234 9.10652 14.7482 8.98906 14.8384 8.84645C14.9286 8.70384 14.9813 8.54072 14.9915 8.37228C15.0017 8.20385 14.9691 8.03557 14.8967 7.88312C14.7165 7.50208 14.6356 7.08166 14.6614 6.66094C14.6873 6.24023 14.8191 5.83288 15.0446 5.47677C15.2701 5.12066 15.582 4.82735 15.9513 4.62411C16.3206 4.42087 16.7352 4.31429 17.1567 4.31429C17.5782 4.31429 17.9929 4.42087 18.3622 4.62411C18.7315 4.82735 19.0433 5.12066 19.2689 5.47677C19.4944 5.83288 19.6262 6.24023 19.652 6.66094C19.6779 7.08166 19.5969 7.50208 19.4167 7.88312C19.3444 8.03557 19.3118 8.20385 19.322 8.37228C19.3322 8.54072 19.3848 8.70384 19.475 8.84645C19.5652 8.98906 19.6901 9.10652 19.8379 9.1879C19.9857 9.26928 20.1517 9.31193 20.3205 9.31187H26.1567V13.3406C25.882 13.3092 25.605 13.3033 25.3292 13.3231C24.1654 13.4055 23.079 13.9368 22.2993 14.8048C21.5197 15.6728 21.1076 16.8097 21.1501 17.9757C21.1926 19.1417 21.6863 20.2456 22.5271 21.0546C23.3678 21.8636 24.49 22.3144 25.6567 22.3119C25.8238 22.3122 25.9907 22.303 26.1567 22.2844V26.3119Z" fill="#F0F0F0"/>
</svg>
